<?xml version="1.0" encoding="UTF-8" standalone="no"?>
<!-- Creator: CorelDRAW X5 -->
<svg xmlns:rdf="http://www.w3.org/1999/02/22-rdf-syntax-ns#" style="shape-rendering:geometricPrecision;text-rendering:geometricPrecision;image-rendering:optimizeQuality;" xmlns="http://www.w3.org/2000/svg" xml:space="preserve" height="149.956mm" width="90.0006mm" version="1.1" clip-rule="evenodd" xmlns:cc="http://creativecommons.org/ns#" xmlns:xlink="http://www.w3.org/1999/xlink" viewBox="0 0 9000 14996" xmlns:dc="http://purl.org/dc/elements/1.1/"><metadata><rdf:RDF><cc:Work rdf:about=""><dc:format>image/svg+xml</dc:format><dc:type rdf:resource="http://purl.org/dc/dcmitype/StillImage"/><dc:title/></cc:Work></rdf:RDF></metadata>
 <defs>
  <style type="text/css">
    .fil1 {fill:#B82930}
    .fil8 {fill:#6D2325;fill-rule:nonzero}
    .fil11 {fill:#8A252C;fill-rule:nonzero}
    .fil6 {fill:#8C252B;fill-rule:nonzero}
    .fil7 {fill:#A2272F;fill-rule:nonzero}
    .fil10 {fill:#B12835;fill-rule:nonzero}
    .fil5 {fill:#B82928;fill-rule:nonzero}
    .fil2 {fill:#B82930;fill-rule:nonzero}
    .fil9 {fill:#C8282D;fill-rule:nonzero}
    .fil4 {fill:#D12426;fill-rule:nonzero}
    .fil3 {fill:#E31E2A;fill-rule:nonzero}
    .fil0 {fill:#FEFEFE;fill-rule:nonzero}
    .fil12 {fill:url(#id0);fill-rule:nonzero}
    .fil13 {fill:url(#id1);fill-rule:nonzero}
    .fil14 {fill:url(#id2);fill-rule:nonzero}
    .fil15 {fill:url(#id3);fill-rule:nonzero}
    .fil16 {fill:url(#id4);fill-rule:nonzero}
    .fil17 {fill:url(#id5);fill-rule:nonzero}
    .fil18 {fill:url(#id6);fill-rule:nonzero}
    .fil20 {fill:url(#id7);fill-rule:nonzero}
    .fil21 {fill:url(#id8);fill-rule:nonzero}
    .fil19 {fill:url(#id9);fill-rule:nonzero}
    .fil22 {fill:url(#id10);fill-rule:nonzero}
  </style>
  <linearGradient id="id0" y2="9291.49" gradientUnits="userSpaceOnUse" y1="8562.92" x2="4261.66" x1="4261.66">
   <stop stop-color="#E31E2A" offset="0"/>
   <stop stop-color="#E31E2A" offset="0.239216"/>
   <stop stop-color="#6D2325" offset="1"/>
  </linearGradient>
  <linearGradient id="id1" x1="4921.63" xlink:href="#id0" gradientUnits="userSpaceOnUse" x2="4921.63" y1="8562.92" y2="9291.49">
  </linearGradient>
  <linearGradient id="id2" x1="5540.2" xlink:href="#id0" gradientUnits="userSpaceOnUse" x2="5540.2" y1="8562.92" y2="9291.49">
  </linearGradient>
  <linearGradient id="id3" x1="6291.87" xlink:href="#id0" gradientUnits="userSpaceOnUse" x2="6291.87" y1="8562.92" y2="9291.49">
  </linearGradient>
  <linearGradient id="id4" x1="7047.04" xlink:href="#id0" gradientUnits="userSpaceOnUse" x2="7047.04" y1="8562.92" y2="9291.49">
  </linearGradient>
  <linearGradient id="id5" x1="7690.92" xlink:href="#id0" gradientUnits="userSpaceOnUse" x2="7690.92" y1="8562.92" y2="9291.49">
  </linearGradient>
  <linearGradient id="id6" x1="8449.48" xlink:href="#id0" gradientUnits="userSpaceOnUse" x2="8449.48" y1="8562.92" y2="9291.49">
  </linearGradient>
  <linearGradient id="id7" y2="8041.86" gradientUnits="userSpaceOnUse" y1="7701.85" x2="5643.13" x1="5643.13">
   <stop stop-color="#E31E2A" offset="0"/>
   <stop stop-color="#A82028" offset="0.54902"/>
   <stop stop-color="#6D2325" offset="1"/>
  </linearGradient>
  <linearGradient id="id8" x1="6320.71" xlink:href="#id7" gradientUnits="userSpaceOnUse" x2="6320.71" y1="7701.85" y2="8041.86">
  </linearGradient>
  <linearGradient id="id9" x1="4282.04" xlink:href="#id7" gradientUnits="userSpaceOnUse" x2="4282.04" y1="7701.37" y2="8042.49">
  </linearGradient>
  <linearGradient id="id10" x1="4973.03" xlink:href="#id7" gradientUnits="userSpaceOnUse" x2="4973.03" y1="7716.47" y2="8048.97">
  </linearGradient>
 </defs>
     <path class="fil0" d="M3354,6033v-1952h7v1952l-3,111-3-111zm3,111l-3-1v-110l3,111zm1853,598l-1853-598v-221l1853,598v221zm0-221l343,111-343,111v-221zm-1853,598l1853-598v221l-1853,598-3-111,3-111zm-3,111v-110l3-1-3,111zm0,1952v-1952h7v1952l-3,111-3-111zm7,0v115l-3-5,3-111zm-1147-1691l1144,1580v221l-1144-1580v-221zm-1854,606l1854-606v221l-1854,606v-221zm0,221l-212,69,212-291v221zm1150-1576l-1150,1576v-221l1150-1576v221zm0-221l81,111-81,111v-221zm-1150-1576l1150,1576v221l-1150-1576v-221zm0,221l-212-291,212,69v221zm1854,606l-1854-606v-221l1854,606v221zm1144-1580l-1144,1580v-221l1144-1580,3,111-3,111zm0-221l3-5v115l-3-111z"/>
      <path class="fil0" d="M2529,6520v221-221zm0,221v-221,221z"/>
      <path class="fil0" d="M2529,6520v221-221zm0,221h-187l187-221v221zv-221l3,111-3,111zm3-111v111h-3l3-111zh-7l3-111,3,111zm-3-111l3-4v115l-3-111z"/>
      <path class="fil0" d="M2981,6733l-22-313,3-204,22,313-1,213-1-9zm1,9h-1l-1-9,1,9zm2228,0h-2228v-221h2228v221zm0-221l686,221h-686v-221zm-1856-599l1856,599v221l-1856-599v-221zm-394,286l394-286v221l-394,286-1-9,1-213zm-1,213l-14-201,16-11-1,213z"/>
      <path class="fil0" d="M2916,6738l-387,3v-221l387-3,3,111-3,111zm3-111v111h-3l3-111zm0-278v278h-7v-278l3-111,3,111zm-7,0v-108l3-2-3,111zm441-207l-438,318v-221l438-318,3,118-3,104zm3-104v101l-3,2,3-104zm4-1951l-4,1951-7-14,4-1951,3-103,4,117zm-4-117l4-12v129l-4-117zm-828,2550l828-2550,1,220-828,2550v-221zm0,221l-72,1,72-221v221z"/>
      <path class="fil0" d="M2533,6631h-7,7zm-7,0h7-7z"/>
      <path class="fil0" d="M2526,6631h7l-3,111-3-111zm3,111l-3,4v-115l3,111zv-221,221zm0-221h187l-187,221v-221zv221l-3-111,3-111zm-3,111v-111h3l-3,111z"/>
      <path class="fil0" d="M3357,9291l-829-2550,1-220,829,2550,3,103-4,117zm4-117v129l-4-12,4-117zm-4-1951l4,1951-7,14-4-1951,3-118,3,104zm-3-104l3,2v101l-3-104zm-438-318l438,318v221l-438-318-3-111,3-111zm0,221l-3-2v-108l3,111zm3-395v284h-7v-284l3-111,3,111zm-3-111h3v111l-3-111zm-387,3l387-3v221l-387,3v-221zm0,221zm0-221v221-221zm0,221l-72-221h72v221z"/>
      <path class="fil0" d="M3358,9291l-1144-1580v-221l1144,1580v221zm0-221l131,402-131-181v-221zm-829-2550l829,2550-1,220-829-2550v-220h1zm-1,0v-1,1h-1zm-315,969l315-969,1,220-315,969v-221zm0,221l-50-69,49-152v221z"/>
      <path class="fil0" d="M360,8096l2169-1576v221l-2169,1576v-221zm0,221l-554,181,554-403v221zm1854-606l-1854,606v-221l1854-606v221zm315-969l-315,969-1-220,315-969v221zm0-221l94-69-94,289v-221z"/>
      <path class="fil0" d="M3003,6520h2207v221h-2207v-221zm-43,113l43-113,1,221-43,113-1-1v-219zm0,219l-27-149,27-70v219zm41,230l-41-230,1-218,41,230-1,220v-2zm0,2v-1,2zm353,257l-353-257v-221l353,257v221zm1856-599l-1856,599v-221l1856-599v221zm0-221h686l-686,221v-221z"/>
      <path class="fil0" d="M360,4944l1854,606v221l-1854-606v-221zm0,221l-554-402,554,181v221zm1820,1322l-1820-1322v-221l1820,1322v221zm182-262l-182,262v-221l182-262v221zm0-221l49,150-49,71v-221zm-148-454l148,454-1,220-148-454v-221z"/>
      <path class="fil0" d="M360,8096l1150-1576v221l-1150,1576v-221zm0,221l-344,250,344-471v221zm2169-1576l-2169,1576v-221l2169-1576v221zm0-221l157,107-157,114v-221zm-315-215l315,215v221l-315-215v-221zm-704,215l704-215v221l-704,215v-221z"/>
      <path class="fil0" d="M3358,4191l-828,2550-1-220,828-2550v221zm0-221l131-181-131,402v-221zm-1144,1580l1144-1580v221l-1144,1580v-221zm0,221l-49-152,50-69v221zm169,520l-169-520,1-220,169,520-1,220zm41,127l-41-127,1-220,41,127-1,220zm105,323l-105-323,1-220,105,323v221zv-221,221z"/>
      <path class="fil0" d="M360,4944l1803,1310v221l-1803-1310v-221zm0,221l-344-471,344,250v221zm1150,1576l-1150-1576v-221l1150,1576v221zm502,0h-502v-221h502v221zm119-159l-119,159v-221l119-159v221zm33-106l-33,106-1-220,33-106v221zm0-221l56,40-55,180v-221z"/>
     <path class="fil0" d="M2147,7451l-1046,325v-221l1046-325v221zm67-204l-67,204-1-220,67-204v221zm0-221l81-25-81,246v-221zm-666,207l666-207v221l-666,207v-221zm0,221l-205,64,205-285v221zm1368-1905l-1368,1905v-221l1368-1905,3,111-3,111zm0-221l3-5v115l-3-111zm-3,2493v-2383h7v2383l-3,111-3-111zm7,0v115l-3-5,3-111zm-444-719l441,608v221l-441-608v-221zv-1zm-67,205l67-205,1,220-67,205v-221zm0,221l-50-69,50-152v221zm683,942l-683-942v-221l683,942,3,111-3,111zm3-111v115l-3-5,3-111zm0-3466v3466h-7v-3466l3-111,3,111zm-3-111l3-5v115l-3-111zm-1990,2771l1990-2771v221l-1990,2771v-221zm0,221l-205,64,205-285v221z"/>
    <polygon points="3358,4081,3358,6033,5210,6631,3358,7229,3358,9180,2214,7600,360,8206,1510,6631,360,5055,2214,5661" class="fil1"/>
     <polygon points="2529,6631,2529,6631" class="fil2"/>
     <polygon points="2529,6631,2529,6631,2529,6631" class="fil2"/>
     <polygon points="2960,6318,2982,6631,5210,6631,3354,6031" class="fil3"/>
     <polygon points="2529,6631,2916,6628,2916,6350,3354,6031,3358,4081" class="fil4"/>
     <polygon points="2529,6631,2529,6631" class="fil2"/>
     <polygon points="2529,6631,2529,6631,2529,6631" class="fil2"/>
     <polygon points="2529,6631,3358,9180,3354,7230,2916,6912,2916,6628,2529,6631" class="fil5"/>
     <polygon points="2214,7600,3358,9180,2529,6631" class="fil6"/>
     <polygon points="2529,6631,360,8206,2214,7600" class="fil7"/>
     <polygon points="5210,6631,3003,6631,2960,6743,3001,6973,3354,7230" class="fil8"/>
     <polygon points="2214,5661,360,5055,2180,6377,2362,6115" class="fil9"/>
     <polygon points="1510,6631,360,8206,2529,6631,2214,6416" class="fil10"/>
     <polygon points="2529,6631,3358,4081,2214,5661,2383,6181,2424,6308,2529,6631" class="fil2"/>
     <polygon points="2164,6365,360,5055,1510,6631,2012,6631,2131,6471" class="fil11"/>
    <polygon points="1101,7666,2147,7341,2214,7137,1548,7344,2916,5438,2916,7821,2475,7213,2408,7418,3091,8361,3091,4895" class="fil0"/>
    <path class="fil12" d="M3947,9332h317c48,0,93-4,133-13,38-8,71-21,97-40,26-18,46-41,61-70,14-29,22-65,22-109,0-17-3-35-8-53-6-18-14-35-25-50s-24-29-39-40-31-19-49-23l-90-23,87-32c31-11,54-30,70-57,16-29,25-59,25-89,0-38-7-70-21-95-14-26-34-47-59-64-26-17-56-30-91-38-36-8-75-13-116-13h-313v810zm283-149h-77v-197h77c43,0,74,9,94,28s31,43,31,69c0,31-11,56-32,74-20,17-51,25-93,25zm-16-313h-61v-200h65c30,0,56,6,78,19,19,11,41,33,41,81,0,32-10,57-30,75-19,17-49,25-92,25z"/>
    <path class="fil13" d="M4619,9332h206v-217h79c60,0,112-8,152-23s73-36,97-62,43-57,54-92c12-37,17-77,17-119,0-43-7-84-22-120-14-36-36-67-63-93-28-26-62-47-102-61-40-15-87-22-139-22h-281v810zm275-376h-68v-274h68c37,0,67,11,90,32,24,22,35,56,35,105,0,46-12,81-35,104-23,22-53,34-91,34z"/>
    <polygon points="5281,9332,5765,9332,5799,9173,5487,9173,5487,8991,5699,8991,5731,8843,5487,8843,5487,8682,5765,8682,5799,8522,5281,8522" class="fil14"/>
    <polygon points="6514,9332,6721,9332,6721,8522,6501,8522,6293,8814,6083,8522,5863,8522,5863,9332,6069,9332,6069,8799,6293,9104,6514,8798" class="fil15"/>
    <polygon points="6788,9332,7272,9332,7306,9173,6994,9173,6994,8991,7206,8991,7238,8843,6994,8843,6994,8682,7272,8682,7306,8522,6788,8522" class="fil16"/>
    <polygon points="7812,9332,8022,9332,8022,8522,7812,8522,7812,8832,7570,8832,7570,8522,7360,8522,7360,9332,7570,9332,7570,8991,7812,8991" class="fil17"/>
    <polygon points="8588,9332,8793,9332,8793,8522,8577,8522,8309,9011,8309,8522,8106,8522,8106,9332,8320,9332,8588,8850" class="fil18"/>
    <path class="fil19" d="M4362,7446c-58,0-115,10-168,29-53,20-100,48-141,85-40,37-73,82-97,134s-36,112-36,178,12,126,36,178,56,97,96,134,87,65,140,85,110,30,169,30,115-10,166-29c43-16,81-39,115-68l-119-151c-16,17-34,31-54,42-31,17-67,25-109,25-28,0-55-5-82-16s-51-27-72-48c-20-21-36-47-49-77-12-30-18-65-18-104s6-74,18-104,28-56,49-77c20-21,45-38,72-48s54-16,82-16c40,0,76,10,108,30,20,12,38,26,54,41l62-185c-16-11-32-21-50-30-51-24-109-37-174-37z"/>
    <polygon points="5535,8277,5745,8277,5745,7626,5959,7626,5959,7467,5380,7467,5327,7626,5535,7626" class="fil20"/>
    <path class="fil21" d="M6008,8277h336c43,0,83-4,119-12,34-8,65-22,90-41s44-44,59-75c15-32,22-73,22-121,0-44-7-81-22-111-14-29-34-52-58-70-25-18-56-32-90-40-36-9-76-13-119-13h-130v-326h-206v810zm283-148h-77v-197h77c43,0,74,9,94,27,20,19,31,42,31,69,0,31-11,56-31,74s-51,27-94,27z"/>
    <path class="fil22" d="M4718,8286c10,3,20,5,31,7,22,4,50,6,83,6,60,0,106-16,140-49,36-35,67-84,93-147l261-636h-208l-125,407-161-407h-209l261,579c13,26,8,48,1,61-8,15-25,32-64,32-14,0-30-3-48-8-4-1-8-2-11-4l-42,158z"/>
</svg>
